<svg
    xmlns="http://www.w3.org/2000/svg"
    viewBox="0 0 492 492"
    id="vector">
    <path
        id="path"
        d="M 198.608 246.104 L 382.664 62.04 C 387.732 56.984 390.52 50.224 390.52 43.016 C 390.52 35.804 387.732 29.048 382.664 23.984 L 366.536 7.864 C 361.476 2.792 354.712 0 347.504 0 C 340.296 0 333.54 2.792 328.476 7.864 L 109.328 227.008 C 104.244 232.088 101.46 238.876 101.48 246.092 C 101.46 253.34 104.24 260.12 109.328 265.204 L 328.272 484.136 C 333.336 489.208 340.092 492 347.304 492 C 354.512 492 361.268 489.208 366.336 484.136 L 382.46 468.016 C 392.952 457.524 392.952 440.444 382.46 429.956 L 198.608 246.104 Z"
        fill="#000000"/>
</svg>
