<svg width="59" height="56" fill="none" xmlns="http://www.w3.org/2000/svg"><rect width="56" height="56" rx="16" fill="#F8F3FF"/><path d="M34.696 33.969v3.613a2.43 2.43 0 0 1-.772 1.784 2.377 2.377 0 0 1-1.825.624 23.419 23.419 0 0 1-10.283-3.697 23.361 23.361 0 0 1-7.148-7.226 24 24 0 0 1-3.658-10.442 2.434 2.434 0 0 1 .613-1.84A2.383 2.383 0 0 1 13.381 16h3.574a2.368 2.368 0 0 1 1.577.582c.439.382.725.91.806 1.49.151 1.156.43 2.291.834 3.384a2.433 2.433 0 0 1-.536 2.54l-1.513 1.53a19.167 19.167 0 0 0 7.149 7.226l1.513-1.53a2.359 2.359 0 0 1 2.514-.542c1.08.409 2.204.691 3.348.844a2.376 2.376 0 0 1 1.485.828c.378.45.579 1.026.564 1.617Z" fill="url(#a)"/><g filter="url(#b)"><ellipse cx="35.212" cy="25.913" rx="9.788" ry="9.913" fill="#8338EC" fill-opacity=".15" shape-rendering="crispEdges"/></g><path d="M31.25 29.214a.5.5 0 0 0 .712.703l-.712-.703Zm8.068-6.956a.5.5 0 0 0-.503-.497l-4.5.029a.5.5 0 1 0 .006 1l4-.026.026 4a.5.5 0 0 0 1-.006l-.029-4.5Zm-7.356 7.659 7.212-7.305-.712-.702-7.212 7.304.712.703Z" fill="#8338EC"/><defs><linearGradient id="a" x1="13.605" y1="17.277" x2="33.184" y2="39.486" gradientUnits="userSpaceOnUse"><stop offset=".394" stop-color="#FFCA46"/><stop offset="1" stop-color="#FF9B06"/></linearGradient><filter id="b" x="11.424" y="5" width="47.576" height="47.826" filterUnits="userSpaceOnUse" color-interpolation-filters="sRGB"><feFlood flood-opacity="0" result="BackgroundImageFix"/><feGaussianBlur in="BackgroundImage" stdDeviation="3.5"/><feComposite in2="SourceAlpha" operator="in" result="effect1_backgroundBlur_2_482"/><feColorMatrix in="SourceAlpha" values="0 0 0 0 0 0 0 0 0 0 0 0 0 0 0 0 0 0 127 0" result="hardAlpha"/><feOffset dy="3"/><feGaussianBlur stdDeviation="7"/><feComposite in2="hardAlpha" operator="out"/><feColorMatrix values="0 0 0 0 0 0 0 0 0 0 0 0 0 0 0 0 0 0 0.07 0"/><feBlend in2="effect1_backgroundBlur_2_482" result="effect2_dropShadow_2_482"/><feBlend in="SourceGraphic" in2="effect2_dropShadow_2_482" result="shape"/><feColorMatrix in="SourceAlpha" values="0 0 0 0 0 0 0 0 0 0 0 0 0 0 0 0 0 0 127 0" result="hardAlpha"/><feOffset dx="-.3" dy="-.3"/><feGaussianBlur stdDeviation=".15"/><feComposite in2="hardAlpha" operator="arithmetic" k2="-1" k3="1"/><feColorMatrix values="0 0 0 0 0.513726 0 0 0 0 0.219608 0 0 0 0 0.92549 0 0 0 0.15 0"/><feBlend in2="shape" result="effect3_innerShadow_2_482"/><feColorMatrix in="SourceAlpha" values="0 0 0 0 0 0 0 0 0 0 0 0 0 0 0 0 0 0 127 0" result="hardAlpha"/><feOffset dx=".3" dy=".3"/><feGaussianBlur stdDeviation=".15"/><feComposite in2="hardAlpha" operator="arithmetic" k2="-1" k3="1"/><feColorMatrix values="0 0 0 0 1 0 0 0 0 1 0 0 0 0 1 0 0 0 0.65 0"/><feBlend in2="effect3_innerShadow_2_482" result="effect4_innerShadow_2_482"/></filter></defs></svg>