<svg width="18" height="18" viewBox="0 0 18 18" fill="none" xmlns="http://www.w3.org/2000/svg">
<path d="M15.75 2.25V3.75C15.75 10.9703 11.7203 14.25 6.75 14.25H3.93225C3.81 14.934 3.75 15.6803 3.75 16.5H2.25C2.25 15.4778 2.337 14.55 2.5095 13.701C2.337 12.7305 2.25 11.4135 2.25 9.75C2.25 5.60775 5.60775 2.25 9.75 2.25C11.25 2.25 12.75 3 15.75 2.25ZM9.75 3.75C6.4365 3.75 3.75 6.4365 3.75 9.75C3.75 10.0215 3.75225 10.2833 3.7575 10.5345C4.698 9.051 6.07575 7.87875 7.878 6.849L8.622 8.151C6.48075 9.375 5.06025 10.7655 4.332 12.75H6.75C11.2612 12.75 14.1532 9.77025 14.2477 4.041C13.2188 4.14075 12.2625 4.077 11.0828 3.9C10.2203 3.77025 10.0507 3.75 9.75 3.75Z" fill="#8338EC"/>
</svg>
