<svg width="24" height="24" viewBox="0 0 24 24" fill="none" xmlns="http://www.w3.org/2000/svg">
<path d="M12.4995 18C10.9082 18 9.38209 17.3679 8.25687 16.2426C7.13165 15.1174 6.49951 13.5913 6.49951 12C6.49951 10.4087 7.13165 8.88258 8.25687 7.75736C9.38209 6.63214 10.9082 6 12.4995 6C14.0908 6 15.6169 6.63214 16.7422 7.75736C17.8674 8.88258 18.4995 10.4087 18.4995 12C18.4995 13.5913 17.8674 15.1174 16.7422 16.2426C15.6169 17.3679 14.0908 18 12.4995 18ZM12.4995 16C13.5604 16 14.5778 15.5786 15.3279 14.8284C16.0781 14.0783 16.4995 13.0609 16.4995 12C16.4995 10.9391 16.0781 9.92172 15.3279 9.17157C14.5778 8.42143 13.5604 8 12.4995 8C11.4386 8 10.4212 8.42143 9.67108 9.17157C8.92094 9.92172 8.49951 10.9391 8.49951 12C8.49951 13.0609 8.92094 14.0783 9.67108 14.8284C10.4212 15.5786 11.4386 16 12.4995 16ZM11.4995 1H13.4995V4H11.4995V1ZM11.4995 20H13.4995V23H11.4995V20ZM4.01451 4.929L5.42851 3.515L7.54951 5.636L6.13551 7.05L4.01451 4.93V4.929ZM17.4495 18.364L18.8635 16.95L20.9845 19.071L19.5705 20.485L17.4495 18.364ZM19.5705 3.514L20.9845 4.929L18.8635 7.05L17.4495 5.636L19.5705 3.515V3.514ZM6.13551 16.95L7.54951 18.364L5.42851 20.485L4.01451 19.071L6.13551 16.95ZM23.4995 11V13H20.4995V11H23.4995ZM4.49951 11V13H1.49951V11H4.49951Z" fill="#FFB706"/>
</svg>
